<mxfile host="app.diagrams.net" agent="Mozilla/5.0 (Windows NT 10.0; Win64; x64) AppleWebKit/537.36 (KHTML, like Gecko) Chrome/135.0.0.0 Safari/537.36" version="26.0.13">
  <diagram name="Page-1" id="p8GSX4qpjSspqNvn0sjG">
    <mxGraphModel dx="4947" dy="3226" grid="1" gridSize="10" guides="1" tooltips="1" connect="1" arrows="1" fold="1" page="1" pageScale="1" pageWidth="850" pageHeight="1100" math="0" shadow="0">
      <root>
        <mxCell id="0" />
        <mxCell id="1" parent="0" />
        <mxCell id="hHyT8EE465TZC9a2mLil-41" value="" style="rounded=0;whiteSpace=wrap;html=1;" vertex="1" parent="1">
          <mxGeometry x="-740" y="-490" width="870" height="1140" as="geometry" />
        </mxCell>
        <mxCell id="hHyT8EE465TZC9a2mLil-1" value="Amazon RDS" style="sketch=0;outlineConnect=0;fontColor=#232F3E;gradientColor=none;strokeColor=#ffffff;fillColor=#232F3E;dashed=0;verticalLabelPosition=middle;verticalAlign=bottom;align=center;html=1;whiteSpace=wrap;fontSize=10;fontStyle=1;spacing=3;shape=mxgraph.aws4.productIcon;prIcon=mxgraph.aws4.rds;" vertex="1" parent="1">
          <mxGeometry x="-190" y="-460" width="155" height="180.5" as="geometry" />
        </mxCell>
        <mxCell id="hHyT8EE465TZC9a2mLil-2" value="" style="image;sketch=0;aspect=fixed;html=1;points=[];align=center;fontSize=12;image=img/lib/mscae/Cache_Redis_Product.svg;" vertex="1" parent="1">
          <mxGeometry x="886.46" y="-490" width="178.54" height="150" as="geometry" />
        </mxCell>
        <mxCell id="hHyT8EE465TZC9a2mLil-3" value="" style="shape=image;html=1;verticalAlign=top;verticalLabelPosition=bottom;labelBackgroundColor=#ffffff;imageAspect=0;aspect=fixed;image=https://cdn2.iconfinder.com/data/icons/boxicons-logos/24/bxl-spring-boot-128.png" vertex="1" parent="1">
          <mxGeometry x="885" y="-107.5" width="180" height="180" as="geometry" />
        </mxCell>
        <mxCell id="hHyT8EE465TZC9a2mLil-4" value="" style="shape=image;html=1;verticalAlign=top;verticalLabelPosition=bottom;labelBackgroundColor=#ffffff;imageAspect=0;aspect=fixed;image=https://cdn2.iconfinder.com/data/icons/competitive-strategy-and-corporate-training/512/177_frontend_interface_mobile_phone_developer_app_development-128.png" vertex="1" parent="1">
          <mxGeometry x="1445" y="-133.12" width="231.25" height="231.25" as="geometry" />
        </mxCell>
        <mxCell id="hHyT8EE465TZC9a2mLil-5" value="Amazon SQS" style="sketch=0;outlineConnect=0;fontColor=#232F3E;gradientColor=none;strokeColor=#ffffff;fillColor=#232F3E;dashed=0;verticalLabelPosition=middle;verticalAlign=bottom;align=center;html=1;whiteSpace=wrap;fontSize=10;fontStyle=1;spacing=3;shape=mxgraph.aws4.productIcon;prIcon=mxgraph.aws4.sqs;" vertex="1" parent="1">
          <mxGeometry x="-662.75" y="-110" width="160" height="185" as="geometry" />
        </mxCell>
        <mxCell id="hHyT8EE465TZC9a2mLil-6" value="" style="outlineConnect=0;dashed=0;verticalLabelPosition=bottom;verticalAlign=top;align=center;html=1;shape=mxgraph.aws3.lambda_function;fillColor=#F58534;gradientColor=none;" vertex="1" parent="1">
          <mxGeometry x="-650" y="-435.25" width="134.5" height="131" as="geometry" />
        </mxCell>
        <mxCell id="hHyT8EE465TZC9a2mLil-10" value="" style="shape=flexArrow;endArrow=classic;startArrow=classic;html=1;rounded=0;entryX=0.5;entryY=1;entryDx=0;entryDy=0;entryPerimeter=0;" edge="1" parent="1" source="hHyT8EE465TZC9a2mLil-5" target="hHyT8EE465TZC9a2mLil-6">
          <mxGeometry width="100" height="100" relative="1" as="geometry">
            <mxPoint x="120" y="302" as="sourcePoint" />
            <mxPoint x="220" y="202" as="targetPoint" />
          </mxGeometry>
        </mxCell>
        <mxCell id="hHyT8EE465TZC9a2mLil-12" value="" style="shape=flexArrow;endArrow=classic;html=1;rounded=0;exitX=1;exitY=0.5;exitDx=0;exitDy=0;exitPerimeter=0;" edge="1" parent="1" source="hHyT8EE465TZC9a2mLil-6" target="hHyT8EE465TZC9a2mLil-1">
          <mxGeometry width="50" height="50" relative="1" as="geometry">
            <mxPoint x="320" y="221" as="sourcePoint" />
            <mxPoint x="370" y="171" as="targetPoint" />
          </mxGeometry>
        </mxCell>
        <mxCell id="hHyT8EE465TZC9a2mLil-15" value="" style="shape=flexArrow;endArrow=classic;startArrow=classic;html=1;rounded=0;entryX=0.5;entryY=0;entryDx=0;entryDy=0;" edge="1" parent="1" source="hHyT8EE465TZC9a2mLil-2" target="hHyT8EE465TZC9a2mLil-3">
          <mxGeometry width="100" height="100" relative="1" as="geometry">
            <mxPoint x="420" y="550" as="sourcePoint" />
            <mxPoint x="975" y="-130" as="targetPoint" />
          </mxGeometry>
        </mxCell>
        <mxCell id="hHyT8EE465TZC9a2mLil-18" value="" style="shape=flexArrow;endArrow=classic;startArrow=classic;html=1;rounded=0;entryX=0;entryY=0.5;entryDx=0;entryDy=0;exitX=1;exitY=0.5;exitDx=0;exitDy=0;" edge="1" parent="1" source="hHyT8EE465TZC9a2mLil-3" target="hHyT8EE465TZC9a2mLil-4">
          <mxGeometry width="100" height="100" relative="1" as="geometry">
            <mxPoint x="650" y="480" as="sourcePoint" />
            <mxPoint x="750" y="380" as="targetPoint" />
          </mxGeometry>
        </mxCell>
        <mxCell id="hHyT8EE465TZC9a2mLil-31" value="Amazon S3" style="sketch=0;outlineConnect=0;fontColor=#232F3E;gradientColor=none;strokeColor=#ffffff;fillColor=#232F3E;dashed=0;verticalLabelPosition=middle;verticalAlign=bottom;align=center;html=1;whiteSpace=wrap;fontSize=10;fontStyle=1;spacing=3;shape=mxgraph.aws4.productIcon;prIcon=mxgraph.aws4.s3;" vertex="1" parent="1">
          <mxGeometry x="-240" y="240" width="170" height="190" as="geometry" />
        </mxCell>
        <mxCell id="hHyT8EE465TZC9a2mLil-32" value="Amazon Cloudfront" style="sketch=0;outlineConnect=0;fontColor=#232F3E;gradientColor=none;strokeColor=#ffffff;fillColor=#232F3E;dashed=0;verticalLabelPosition=middle;verticalAlign=bottom;align=center;html=1;whiteSpace=wrap;fontSize=10;fontStyle=1;spacing=3;shape=mxgraph.aws4.productIcon;prIcon=mxgraph.aws4.cloudfront;" vertex="1" parent="1">
          <mxGeometry x="1483.13" y="340" width="155" height="200" as="geometry" />
        </mxCell>
        <mxCell id="hHyT8EE465TZC9a2mLil-35" value="" style="shape=flexArrow;endArrow=classic;html=1;rounded=0;" edge="1" parent="1" source="hHyT8EE465TZC9a2mLil-32" target="hHyT8EE465TZC9a2mLil-4">
          <mxGeometry width="50" height="50" relative="1" as="geometry">
            <mxPoint x="1155" y="530" as="sourcePoint" />
            <mxPoint x="1205" y="480" as="targetPoint" />
          </mxGeometry>
        </mxCell>
        <mxCell id="hHyT8EE465TZC9a2mLil-40" value="" style="outlineConnect=0;dashed=0;verticalLabelPosition=bottom;verticalAlign=top;align=center;html=1;shape=mxgraph.aws3.iam;fillColor=#759C3E;gradientColor=none;" vertex="1" parent="1">
          <mxGeometry x="368" y="-107.5" width="115" height="180" as="geometry" />
        </mxCell>
        <mxCell id="hHyT8EE465TZC9a2mLil-42" value="" style="rounded=0;whiteSpace=wrap;html=1;" vertex="1" parent="1">
          <mxGeometry x="600" y="130" width="210" height="150" as="geometry" />
        </mxCell>
        <mxCell id="hHyT8EE465TZC9a2mLil-43" value="" style="dashed=0;outlineConnect=0;html=1;align=center;labelPosition=center;verticalLabelPosition=bottom;verticalAlign=top;shape=mxgraph.weblogos.twitter;fillColor=#1DA1F2;strokeColor=none" vertex="1" parent="1">
          <mxGeometry x="629.5" y="153.75" width="60" height="52.5" as="geometry" />
        </mxCell>
        <mxCell id="hHyT8EE465TZC9a2mLil-44" value="" style="sketch=0;verticalLabelPosition=bottom;sketch=0;aspect=fixed;html=1;verticalAlign=top;strokeColor=none;fillColor=#000000;align=center;outlineConnect=0;pointerEvents=1;shape=mxgraph.citrix2.authentication_google;" vertex="1" parent="1">
          <mxGeometry x="719.5" y="148.75" width="62.5" height="62.5" as="geometry" />
        </mxCell>
        <mxCell id="hHyT8EE465TZC9a2mLil-45" value="&lt;b&gt;&lt;font style=&quot;font-size: 18px;&quot;&gt;OAUTH Providers&lt;/font&gt;&lt;/b&gt;" style="text;html=1;align=center;verticalAlign=middle;whiteSpace=wrap;rounded=0;" vertex="1" parent="1">
          <mxGeometry x="615" y="210" width="180" height="60" as="geometry" />
        </mxCell>
        <mxCell id="hHyT8EE465TZC9a2mLil-47" value="" style="shape=flexArrow;endArrow=classic;startArrow=classic;html=1;rounded=0;exitX=0.5;exitY=1;exitDx=0;exitDy=0;exitPerimeter=0;" edge="1" parent="1" source="hHyT8EE465TZC9a2mLil-40" target="hHyT8EE465TZC9a2mLil-32">
          <mxGeometry width="100" height="100" relative="1" as="geometry">
            <mxPoint x="440" y="430" as="sourcePoint" />
            <mxPoint x="980" y="80" as="targetPoint" />
            <Array as="points">
              <mxPoint x="430" y="440" />
            </Array>
          </mxGeometry>
        </mxCell>
        <mxCell id="hHyT8EE465TZC9a2mLil-48" value="" style="shape=flexArrow;endArrow=classic;startArrow=classic;html=1;rounded=0;exitX=0.92;exitY=0.5;exitDx=0;exitDy=0;exitPerimeter=0;" edge="1" parent="1" source="hHyT8EE465TZC9a2mLil-40" target="hHyT8EE465TZC9a2mLil-3">
          <mxGeometry width="100" height="100" relative="1" as="geometry">
            <mxPoint x="880" y="180" as="sourcePoint" />
            <mxPoint x="980" y="80" as="targetPoint" />
          </mxGeometry>
        </mxCell>
        <mxCell id="hHyT8EE465TZC9a2mLil-49" value="" style="shape=flexArrow;endArrow=classic;startArrow=classic;html=1;rounded=0;entryX=0.5;entryY=1;entryDx=0;entryDy=0;exitX=1;exitY=0.5;exitDx=0;exitDy=0;" edge="1" parent="1" source="hHyT8EE465TZC9a2mLil-42" target="hHyT8EE465TZC9a2mLil-3">
          <mxGeometry width="100" height="100" relative="1" as="geometry">
            <mxPoint x="880" y="180" as="sourcePoint" />
            <mxPoint x="980" y="80" as="targetPoint" />
            <Array as="points">
              <mxPoint x="975" y="205" />
            </Array>
          </mxGeometry>
        </mxCell>
        <mxCell id="hHyT8EE465TZC9a2mLil-51" value="" style="shape=flexArrow;endArrow=classic;startArrow=classic;html=1;rounded=0;entryX=0.26;entryY=0.85;entryDx=0;entryDy=0;entryPerimeter=0;" edge="1" parent="1" source="hHyT8EE465TZC9a2mLil-31" target="hHyT8EE465TZC9a2mLil-40">
          <mxGeometry width="100" height="100" relative="1" as="geometry">
            <mxPoint x="130" y="-17.699606707452677" as="sourcePoint" />
            <mxPoint x="370.0699999999997" y="-18.609999999999946" as="targetPoint" />
            <Array as="points">
              <mxPoint x="-155" y="40" />
            </Array>
          </mxGeometry>
        </mxCell>
        <mxCell id="hHyT8EE465TZC9a2mLil-54" value="" style="rounded=0;whiteSpace=wrap;html=1;" vertex="1" parent="1">
          <mxGeometry x="-230" y="-210" width="220" height="120" as="geometry" />
        </mxCell>
        <mxCell id="hHyT8EE465TZC9a2mLil-55" value="" style="dashed=0;outlineConnect=0;html=1;align=center;labelPosition=center;verticalLabelPosition=bottom;verticalAlign=top;shape=mxgraph.weblogos.youtube_2;fillColor=#FF2626;gradientColor=#B5171F" vertex="1" parent="1">
          <mxGeometry x="-210" y="-200" width="70" height="50" as="geometry" />
        </mxCell>
        <mxCell id="hHyT8EE465TZC9a2mLil-56" value="" style="dashed=0;outlineConnect=0;html=1;align=center;labelPosition=center;verticalLabelPosition=bottom;verticalAlign=top;shape=mxgraph.weblogos.twitter;fillColor=#1DA1F2;strokeColor=none" vertex="1" parent="1">
          <mxGeometry x="-105" y="-200" width="70" height="52.5" as="geometry" />
        </mxCell>
        <mxCell id="hHyT8EE465TZC9a2mLil-57" value="&lt;font style=&quot;font-size: 18px;&quot;&gt;&lt;b&gt;&lt;u&gt;Media Platforms&lt;/u&gt;&lt;/b&gt;&lt;/font&gt;" style="text;html=1;align=center;verticalAlign=middle;whiteSpace=wrap;rounded=0;" vertex="1" parent="1">
          <mxGeometry x="-280" y="-133.12" width="320" height="30" as="geometry" />
        </mxCell>
        <mxCell id="hHyT8EE465TZC9a2mLil-58" value="" style="shape=flexArrow;endArrow=classic;html=1;rounded=0;entryX=0;entryY=0.5;entryDx=0;entryDy=0;" edge="1" parent="1" source="hHyT8EE465TZC9a2mLil-6" target="hHyT8EE465TZC9a2mLil-54">
          <mxGeometry width="50" height="50" relative="1" as="geometry">
            <mxPoint x="-502.75" y="-260" as="sourcePoint" />
            <mxPoint x="-452.75" y="-310" as="targetPoint" />
          </mxGeometry>
        </mxCell>
        <mxCell id="hHyT8EE465TZC9a2mLil-59" value="" style="shape=flexArrow;endArrow=classic;html=1;rounded=0;" edge="1" parent="1" source="hHyT8EE465TZC9a2mLil-40" target="hHyT8EE465TZC9a2mLil-5">
          <mxGeometry width="50" height="50" relative="1" as="geometry">
            <mxPoint x="390" y="190" as="sourcePoint" />
            <mxPoint x="440" y="140" as="targetPoint" />
          </mxGeometry>
        </mxCell>
        <mxCell id="hHyT8EE465TZC9a2mLil-60" value="&lt;font style=&quot;font-size: 48px;&quot;&gt;&lt;b&gt;&lt;u&gt;AWS Services&lt;/u&gt;&lt;/b&gt;&lt;/font&gt;" style="text;strokeColor=none;align=center;fillColor=none;html=1;verticalAlign=middle;whiteSpace=wrap;rounded=0;" vertex="1" parent="1">
          <mxGeometry x="-560" y="530" width="440" height="80" as="geometry" />
        </mxCell>
        <mxCell id="hHyT8EE465TZC9a2mLil-64" value="" style="shape=flexArrow;endArrow=classic;startArrow=classic;html=1;rounded=0;exitX=0.5;exitY=0;exitDx=0;exitDy=0;exitPerimeter=0;" edge="1" parent="1" source="hHyT8EE465TZC9a2mLil-40" target="hHyT8EE465TZC9a2mLil-1">
          <mxGeometry width="100" height="100" relative="1" as="geometry">
            <mxPoint x="340" y="-210" as="sourcePoint" />
            <mxPoint x="440" y="-310" as="targetPoint" />
            <Array as="points">
              <mxPoint x="426" y="-370" />
            </Array>
          </mxGeometry>
        </mxCell>
      </root>
    </mxGraphModel>
  </diagram>
</mxfile>
